<?xml version="1.0" encoding="UTF-8"?>
<svg version="1.1" xmlns="http://www.w3.org/2000/svg" width="200" height="200">
<path d="M0 0 C66 0 132 0 200 0 C200 66 200 132 200 200 C134 200 68 200 0 200 C0 134 0 68 0 0 Z " fill="#1C2633" transform="translate(0,0)"/>
<path d="M0 0 C0.98832321 -0.0071553 1.97664642 -0.01431061 2.99491882 -0.02168274 C4.07809387 -0.02437164 5.16126892 -0.02706055 6.27726746 -0.02983093 C7.41898911 -0.03640213 8.56071075 -0.04297333 9.73703003 -0.04974365 C13.5228227 -0.06948695 17.3085757 -0.08114078 21.09440613 -0.09111023 C23.03180947 -0.09722352 23.03180947 -0.09722352 25.00835228 -0.10346031 C31.13793847 -0.1221724 37.26750474 -0.13673813 43.39711362 -0.14507228 C50.46689811 -0.15484418 57.53636947 -0.18116488 64.60604364 -0.22157317 C70.73402693 -0.25539424 76.86187873 -0.26721904 82.98995018 -0.27127647 C85.59467888 -0.27615333 88.19940397 -0.28779836 90.80407143 -0.30631447 C94.44773549 -0.33060925 98.09057879 -0.32975814 101.73429871 -0.32279968 C102.81140106 -0.33560974 103.88850342 -0.3484198 104.99824524 -0.36161804 C111.06254894 -0.31937271 114.57835966 0.10618089 119.19987488 4.14717102 C122.87363822 8.20097885 123.3204369 11.90144369 123.35377502 17.24391174 C123.36237549 18.27279007 123.37097595 19.3016684 123.37983704 20.36172485 C123.38622696 22.04651192 123.38622696 22.04651192 123.39274597 23.76533508 C123.40501221 25.5464695 123.40501221 25.5464695 123.41752625 27.36358643 C123.44235709 31.29664269 123.45904633 35.22969136 123.47331238 39.16279602 C123.47867489 40.51971696 123.48405241 41.87663784 123.48944473 43.23355865 C123.51106266 48.87997136 123.52979759 54.52638128 123.54106712 60.17282486 C123.55729711 68.24983586 123.59046345 76.3263652 123.64746797 84.40319467 C123.68623424 90.09082671 123.70570764 95.77833027 123.71098769 101.46609092 C123.71463196 104.85911106 123.7265531 108.25161663 123.75909042 111.6444931 C123.79070382 115.43384399 123.7907835 119.22198072 123.78337097 123.01142883 C123.79977631 124.12652328 123.81618164 125.24161774 123.83308411 126.39050293 C123.77831414 133.23903605 122.82692203 137.94502019 118.19987488 143.14717102 C113.67048331 147.39433093 107.75424761 146.57573556 101.89543152 146.55122375 C100.75341782 146.55808701 99.61140411 146.56495026 98.43478394 146.57202148 C94.65973986 146.59032281 90.88511005 146.58644705 87.11003113 146.58076477 C84.48596053 146.58532493 81.86189114 146.59063 79.23782349 146.59664917 C73.73758482 146.60667456 68.23746376 146.60338332 62.73722839 146.59321594 C56.38699587 146.58173642 50.03718577 146.59580914 43.68700892 146.62261242 C37.56859659 146.64746676 31.45037871 146.64994308 25.33192253 146.64349556 C22.73279048 146.64334212 20.13365037 146.64940497 17.53454781 146.66178703 C13.90061623 146.67665948 10.26761517 146.66604603 6.63371277 146.64888 C5.02277237 146.66338196 5.02277237 146.66338196 3.37928772 146.67817688 C-2.45406862 146.62045833 -6.42022136 146.41177739 -10.80012512 142.14717102 C-15.46516661 135.9890901 -15.36666408 129.49952528 -15.30183411 122.04316711 C-15.30723709 120.85194748 -15.31264008 119.66072784 -15.31820679 118.43341064 C-15.3285253 115.18747922 -15.32104664 111.9422178 -15.30449557 108.69633055 C-15.29057472 105.28920361 -15.29711288 101.88210549 -15.30062866 98.47496033 C-15.30332453 92.75721185 -15.28990667 87.03967405 -15.26667786 81.32197571 C-15.24004641 74.72123015 -15.23833134 68.12083609 -15.25006622 61.52005517 C-15.26086067 55.15442897 -15.25464555 48.78892931 -15.24051094 42.42331314 C-15.2347681 39.72088741 -15.23482027 37.01855481 -15.23957634 34.31612778 C-15.24248655 30.54133146 -15.22599022 26.76710959 -15.20417786 22.99238586 C-15.2086795 21.87638504 -15.21318115 20.76038422 -15.21781921 19.61056519 C-15.15187979 12.74257375 -14.42735266 8.18490286 -9.80012512 2.83467102 C-6.65220528 0.17861365 -3.96491105 0.01971114 0 0 Z " fill="#19222E" transform="translate(45.80012512207031,28.852828979492188)"/>
<path d="M0 0 C1.41937866 -0.01496269 1.41937866 -0.01496269 2.86743164 -0.03022766 C4.42206367 -0.03122467 4.42206367 -0.03122467 6.00810242 -0.03224182 C7.10105621 -0.04056534 8.19401001 -0.04888885 9.32008362 -0.0574646 C12.94358351 -0.08161672 16.56690354 -0.0903434 20.19047546 -0.09693909 C22.70530248 -0.1059018 25.22012894 -0.11502357 27.73495483 -0.1242981 C33.01172119 -0.14080506 38.28844352 -0.14852438 43.56523132 -0.15138245 C49.65759337 -0.15501556 55.74945096 -0.18489354 61.84165889 -0.22678703 C67.70802643 -0.26570872 73.57419442 -0.27697594 79.44067955 -0.2781086 C81.93377097 -0.28231749 84.42686257 -0.29477837 86.91987038 -0.31562614 C90.40806117 -0.34247221 93.89486117 -0.33773381 97.38310242 -0.32521057 C98.41345108 -0.34004486 99.44379974 -0.35487915 100.50537109 -0.37016296 C104.73116345 -0.32694666 108.41533893 -0.2427432 112.04098511 2.09750366 C115.548316 6.84120144 115.14242901 10.94814144 114.97563171 16.69993591 C114.96714203 17.80266342 114.95865234 18.90539093 114.9499054 20.04153442 C114.91636516 23.55757557 114.84107822 27.07130877 114.76469421 30.58665466 C114.73459571 32.97268921 114.70721972 35.35875977 114.68266296 37.74485779 C114.6165718 43.58874188 114.51621524 49.43128339 114.38969421 55.27415466 C98.36975884 55.29748383 82.34982895 55.31513392 66.32988071 55.32596684 C58.89204911 55.33112976 51.45422804 55.33817238 44.0164032 55.34959412 C37.53588079 55.35954108 31.05536602 55.36600812 24.57483619 55.36824316 C21.14138879 55.36955025 17.70796321 55.37263597 14.27452278 55.37988472 C10.44775601 55.38789882 6.62101086 55.38814579 2.79423523 55.38768005 C1.07441689 55.39307297 1.07441689 55.39307297 -0.68014526 55.39857483 C-2.23461868 55.39651283 -2.23461868 55.39651283 -3.82049561 55.39440918 C-4.72661811 55.39533097 -5.63274061 55.39625277 -6.56632137 55.39720249 C-8.61030579 55.27415466 -8.61030579 55.27415466 -9.61030579 54.27415466 C-9.71379509 52.79154021 -9.74881263 51.30406241 -9.75556946 49.81785583 C-9.76194931 48.86984604 -9.76832916 47.92183624 -9.77490234 46.94509888 C-9.77601517 45.91286697 -9.77712799 44.88063507 -9.77827454 43.81712341 C-9.78160294 42.7626149 -9.78493134 41.70810638 -9.7883606 40.62164307 C-9.79343536 38.38464292 -9.79576875 36.14763517 -9.79560852 33.91062927 C-9.7977898 30.48675518 -9.81592547 27.06320582 -9.83491516 23.63938904 C-9.83784999 21.46946827 -9.83983419 19.29954596 -9.84077454 17.12962341 C-9.84796005 16.1034642 -9.85514557 15.07730499 -9.86254883 14.02005005 C-9.8594722 13.06258377 -9.85639557 12.10511749 -9.85322571 11.11863708 C-9.85465073 10.27782089 -9.85607574 9.4370047 -9.85754395 8.57070923 C-9.58090544 6.00105966 -9.00581256 4.4432941 -7.61030579 2.27415466 C-4.43235685 0.15552204 -3.64060841 0.02057834 0 0 Z " fill="#1C2632" transform="translate(47.61030578613281,34.72584533691406)"/>
<path d="M0 0 C0.98832321 -0.0071553 1.97664642 -0.01431061 2.99491882 -0.02168274 C4.07809387 -0.02437164 5.16126892 -0.02706055 6.27726746 -0.02983093 C7.41898911 -0.03640213 8.56071075 -0.04297333 9.73703003 -0.04974365 C13.5228227 -0.06948695 17.3085757 -0.08114078 21.09440613 -0.09111023 C23.03180947 -0.09722352 23.03180947 -0.09722352 25.00835228 -0.10346031 C31.13793847 -0.1221724 37.26750474 -0.13673813 43.39711362 -0.14507228 C50.46689811 -0.15484418 57.53636947 -0.18116488 64.60604364 -0.22157317 C70.73402693 -0.25539424 76.86187873 -0.26721904 82.98995018 -0.27127647 C85.59467888 -0.27615333 88.19940397 -0.28779836 90.80407143 -0.30631447 C94.44773549 -0.33060925 98.09057879 -0.32975814 101.73429871 -0.32279968 C102.81140106 -0.33560974 103.88850342 -0.3484198 104.99824524 -0.36161804 C111.06254894 -0.31937271 114.57835966 0.10618089 119.19987488 4.14717102 C122.87363822 8.20097885 123.3204369 11.90144369 123.35377502 17.24391174 C123.36237549 18.27279007 123.37097595 19.3016684 123.37983704 20.36172485 C123.38622696 22.04651192 123.38622696 22.04651192 123.39274597 23.76533508 C123.40501221 25.5464695 123.40501221 25.5464695 123.41752625 27.36358643 C123.44235709 31.29664269 123.45904633 35.22969136 123.47331238 39.16279602 C123.47867489 40.51971696 123.48405241 41.87663784 123.48944473 43.23355865 C123.51106266 48.87997136 123.52979759 54.52638128 123.54106712 60.17282486 C123.55729711 68.24983586 123.59046345 76.3263652 123.64746797 84.40319467 C123.68623424 90.09082671 123.70570764 95.77833027 123.71098769 101.46609092 C123.71463196 104.85911106 123.7265531 108.25161663 123.75909042 111.6444931 C123.79070382 115.43384399 123.7907835 119.22198072 123.78337097 123.01142883 C123.79977631 124.12652328 123.81618164 125.24161774 123.83308411 126.39050293 C123.77831414 133.23903605 122.82692203 137.94502019 118.19987488 143.14717102 C113.67048331 147.39433093 107.75424761 146.57573556 101.89543152 146.55122375 C100.75341782 146.55808701 99.61140411 146.56495026 98.43478394 146.57202148 C94.65973986 146.59032281 90.88511005 146.58644705 87.11003113 146.58076477 C84.48596053 146.58532493 81.86189114 146.59063 79.23782349 146.59664917 C73.73758482 146.60667456 68.23746376 146.60338332 62.73722839 146.59321594 C56.38699587 146.58173642 50.03718577 146.59580914 43.68700892 146.62261242 C37.56859659 146.64746676 31.45037871 146.64994308 25.33192253 146.64349556 C22.73279048 146.64334212 20.13365037 146.64940497 17.53454781 146.66178703 C13.90061623 146.67665948 10.26761517 146.66604603 6.63371277 146.64888 C5.02277237 146.66338196 5.02277237 146.66338196 3.37928772 146.67817688 C-2.45406862 146.62045833 -6.42022136 146.41177739 -10.80012512 142.14717102 C-15.46516661 135.9890901 -15.36666408 129.49952528 -15.30183411 122.04316711 C-15.30723709 120.85194748 -15.31264008 119.66072784 -15.31820679 118.43341064 C-15.3285253 115.18747922 -15.32104664 111.9422178 -15.30449557 108.69633055 C-15.29057472 105.28920361 -15.29711288 101.88210549 -15.30062866 98.47496033 C-15.30332453 92.75721185 -15.28990667 87.03967405 -15.26667786 81.32197571 C-15.24004641 74.72123015 -15.23833134 68.12083609 -15.25006622 61.52005517 C-15.26086067 55.15442897 -15.25464555 48.78892931 -15.24051094 42.42331314 C-15.2347681 39.72088741 -15.23482027 37.01855481 -15.23957634 34.31612778 C-15.24248655 30.54133146 -15.22599022 26.76710959 -15.20417786 22.99238586 C-15.2086795 21.87638504 -15.21318115 20.76038422 -15.21781921 19.61056519 C-15.15187979 12.74257375 -14.42735266 8.18490286 -9.80012512 2.83467102 C-6.65220528 0.17861365 -3.96491105 0.01971114 0 0 Z M-5.40837097 8.05551147 C-7.52290754 11.23343669 -7.92595482 12.97724139 -7.92951965 16.76460266 C-7.93267181 17.72222 -7.93582397 18.67983734 -7.93907166 19.66647339 C-7.93704742 20.70295517 -7.93502319 21.73943695 -7.93293762 22.80732727 C-7.93389435 23.86753586 -7.93485107 24.92774445 -7.93583679 26.02008057 C-7.93651807 28.26369791 -7.9346674 30.50731722 -7.93049622 32.75093079 C-7.92514199 36.19881074 -7.9304457 39.64656074 -7.93684387 43.09443665 C-7.93618319 45.26956714 -7.93490222 47.44469756 -7.93293762 49.61982727 C-7.93496185 50.65833328 -7.93698608 51.69683929 -7.93907166 52.76681519 C-7.93591949 53.72128036 -7.93276733 54.67574554 -7.92951965 55.65913391 C-7.92872406 56.50359573 -7.92792847 57.34805756 -7.92710876 58.21810913 C-8.01247729 60.15453012 -8.01247729 60.15453012 -6.80012512 61.14717102 C-5.20590476 61.24314306 -3.60742062 61.26905026 -2.01031494 61.26742554 C-0.45584152 61.26948753 -0.45584152 61.26948753 1.1300354 61.27159119 C2.27658096 61.26799591 3.42312653 61.26440063 4.60441589 61.26069641 C5.8042511 61.26084244 7.0040863 61.26098846 8.24028015 61.26113892 C11.53972678 61.26055996 14.83911151 61.2555308 18.13854718 61.24856496 C21.58321785 61.24233075 25.02788926 61.24172757 28.4725647 61.24053955 C34.99970218 61.23742643 41.52682299 61.22921331 48.05395311 61.21919006 C55.48309504 61.20802832 62.91223774 61.20251832 70.34138596 61.19749463 C85.6275586 61.18703068 100.91371459 61.16943162 116.19987488 61.14717102 C116.35207879 54.11823795 116.45711269 47.08973006 116.52946472 40.05952454 C116.55962727 37.66841247 116.60056389 35.27741096 116.6525116 32.88667297 C116.72534541 29.44848868 116.75933761 26.01176754 116.78581238 22.57295227 C116.81678009 21.50506973 116.8477478 20.43718719 116.87965393 19.33694458 C116.8818596 14.4667043 116.80421977 11.96369792 113.85017395 7.97250366 C109.39092028 5.09409308 104.34084512 5.45774511 99.20915222 5.5160675 C97.56424553 5.50533455 97.56424553 5.50533455 95.8861084 5.49438477 C92.2689167 5.47750438 88.65296522 5.49689566 85.03581238 5.51826477 C82.52048134 5.51743614 80.00515035 5.51497699 77.48982239 5.51095581 C72.22246449 5.50809841 66.95542751 5.5222659 61.68815613 5.55024719 C55.60196133 5.58232991 49.51640707 5.58226866 43.4301666 5.56503242 C37.56746888 5.54916241 31.70500728 5.55599961 25.84231949 5.57296944 C23.35039928 5.57815782 20.85846062 5.57766153 18.36654282 5.57142448 C14.88789173 5.56598519 11.41033493 5.58630678 7.93180847 5.61372375 C6.89898239 5.60719788 5.86615631 5.600672 4.80203247 5.59394836 C-0.68009043 5.58240455 -0.68009043 5.58240455 -5.40837097 8.05551147 Z M-7.80012512 67.14717102 C-7.88262512 78.09904602 -7.96512512 89.05092102 -8.05012512 100.33467102 C-8.08654114 103.78702209 -8.12295715 107.23937317 -8.16047668 110.79634094 C-8.17215878 113.53176755 -8.18235173 116.26720111 -8.19075012 119.00263977 C-8.20120361 119.71019913 -8.2116571 120.41775848 -8.22242737 121.14675903 C-8.25181276 123.24126632 -8.25574602 125.33447016 -8.25422668 127.42915344 C-8.26310913 128.60829819 -8.27199158 129.78744293 -8.28114319 131.00231934 C-7.70118924 134.79400466 -6.45587982 136.43314218 -3.80012512 139.14717102 C-1.43013749 140.33216483 0.01426444 140.2805198 2.65869141 140.29434204 C3.59660019 140.30149734 4.53450897 140.30865265 5.50083923 140.31602478 C6.53307617 140.31871368 7.56531311 140.32140259 8.62882996 140.32417297 C10.25582069 140.33402977 10.25582069 140.33402977 11.91567993 140.34408569 C15.51692264 140.36384987 19.1181236 140.37548772 22.71940613 140.38545227 C24.56076425 140.39156556 24.56076425 140.39156556 26.43932152 140.39780235 C32.26509779 140.41652161 38.09085758 140.43108494 43.91665822 140.43941432 C50.64008694 140.44918591 57.36318635 140.47550287 64.08649904 140.51591522 C69.91066671 140.54972075 75.73472395 140.56155989 81.55898094 140.56561852 C84.03614727 140.57049826 86.51330974 140.58215142 88.99041176 140.60065651 C92.45478848 140.62492994 95.91830099 140.62410417 99.38273621 140.61714172 C100.92198257 140.63635681 100.92198257 140.63635681 102.49232483 140.65596008 C106.92156077 140.62346131 109.47132192 140.59278046 113.31344604 138.24279785 C116.50575572 134.69647281 116.32221282 132.47563318 116.31340027 127.76972961 C116.31358107 126.77319335 116.31358107 126.77319335 116.31376553 125.75652504 C116.31301826 123.60285232 116.30539849 121.44926579 116.29753113 119.29560852 C116.29652405 117.98052307 116.29551697 116.66543762 116.29447937 115.3105011 C116.28923316 110.38104891 116.275272 105.45160912 116.26237488 100.52217102 C116.23143738 84.00154602 116.23143738 84.00154602 116.19987488 67.14717102 C75.27987488 67.14717102 34.35987488 67.14717102 -7.80012512 67.14717102 Z " fill="#0E1721" transform="translate(45.80012512207031,28.852828979492188)"/>
<path d="M0 0 C1.05960938 -0.00386719 2.11921875 -0.00773437 3.2109375 -0.01171875 C4.86996094 0.00568359 4.86996094 0.00568359 6.5625 0.0234375 C8.22152344 0.00603516 8.22152344 0.00603516 9.9140625 -0.01171875 C10.97367188 -0.00785156 12.03328125 -0.00398438 13.125 0 C14.58099609 0.00507568 14.58099609 0.00507568 16.06640625 0.01025391 C18.5625 0.3984375 18.5625 0.3984375 20.37524414 1.59716797 C22.89394191 5.41846185 22.02962614 10.47606289 22 14.8984375 C22.0299707 16.48591797 22.0299707 16.48591797 22.06054688 18.10546875 C22.05990234 19.11996094 22.05925781 20.13445312 22.05859375 21.1796875 C22.06137329 22.5728418 22.06137329 22.5728418 22.06420898 23.99414062 C21.5625 26.3984375 21.5625 26.3984375 19.86376953 28.19970703 C17.12849884 29.62450855 15.32204443 29.78560483 12.24609375 29.796875 C11.23482422 29.80074219 10.22355469 29.80460937 9.18164062 29.80859375 C8.13169922 29.79699219 7.08175781 29.78539062 6 29.7734375 C4.94619141 29.78503906 3.89238281 29.79664063 2.80664062 29.80859375 C1.79666016 29.80472656 0.78667969 29.80085938 -0.25390625 29.796875 C-1.17631104 29.79349121 -2.09871582 29.79010742 -3.04907227 29.78662109 C-5.4375 29.3984375 -5.4375 29.3984375 -7.23657227 28.19970703 C-8.85763042 25.76828457 -8.82533173 24.09071899 -8.8359375 21.1796875 C-8.83980469 20.16519531 -8.84367187 19.15070313 -8.84765625 18.10546875 C-8.83605469 17.04714844 -8.82445313 15.98882812 -8.8125 14.8984375 C-8.82410156 13.84011719 -8.83570312 12.78179687 -8.84765625 11.69140625 C-8.84185547 10.16966797 -8.84185547 10.16966797 -8.8359375 8.6171875 C-8.83255371 7.68841797 -8.82916992 6.75964844 -8.82568359 5.80273438 C-8.4375 3.3984375 -8.4375 3.3984375 -7.25244141 1.59716797 C-4.75858708 -0.04997015 -2.97657818 0.01037652 0 0 Z " fill="#0E1821" transform="translate(93.4375,102.6015625)"/>
<path d="M0 0 C1.64645508 -0.0299707 1.64645508 -0.0299707 3.32617188 -0.06054688 C4.38255859 -0.05990234 5.43894531 -0.05925781 6.52734375 -0.05859375 C7.492771 -0.06044678 8.45819824 -0.0622998 9.45288086 -0.06420898 C12.84957727 0.58881853 14.0181405 1.67871061 16.0625 4.4375 C16.56420898 6.77172852 16.56420898 6.77172852 16.55859375 9.31640625 C16.55923828 10.23744141 16.55988281 11.15847656 16.56054688 12.10742188 C16.54056641 13.06197266 16.52058594 14.01652344 16.5 15 C16.50708984 15.95841797 16.51417969 16.91683594 16.52148438 17.90429688 C16.45830024 24.83997091 16.45830024 24.83997091 14.88891602 27.20922852 C12.33669479 28.92560667 10.46700449 28.82570901 7.40625 28.8359375 C6.30152344 28.83980469 5.19679687 28.84367187 4.05859375 28.84765625 C2.90488281 28.83605469 1.75117188 28.82445312 0.5625 28.8125 C-0.59121094 28.82410156 -1.74492187 28.83570313 -2.93359375 28.84765625 C-4.03832031 28.84378906 -5.14304688 28.83992188 -6.28125 28.8359375 C-7.29380859 28.83255371 -8.30636719 28.82916992 -9.34960938 28.82568359 C-11.9375 28.4375 -11.9375 28.4375 -13.76611328 27.22509766 C-15.3187817 24.8556441 -15.32516486 23.26095827 -15.3359375 20.4375 C-15.33980469 19.468125 -15.34367187 18.49875 -15.34765625 17.5 C-15.33605469 16.489375 -15.32445313 15.47875 -15.3125 14.4375 C-15.32410156 13.426875 -15.33570312 12.41625 -15.34765625 11.375 C-15.34378906 10.405625 -15.33992188 9.43625 -15.3359375 8.4375 C-15.33255371 7.550625 -15.32916992 6.66375 -15.32568359 5.75 C-14.9375 3.4375 -14.9375 3.4375 -13.75024414 1.65209961 C-9.85038612 -0.96093657 -4.53060753 -0.02916131 0 0 Z " fill="#0E1721" transform="translate(137.9375,136.5625)"/>
<path d="M0 0 C1.05638672 -0.00064453 2.11277344 -0.00128906 3.20117188 -0.00195312 C4.29880859 0.01802734 5.39644531 0.03800781 6.52734375 0.05859375 C7.62884766 0.05150391 8.73035156 0.04441406 9.86523438 0.03710938 C17.87475713 0.10071585 17.87475713 0.10071585 20.27758789 1.71069336 C21.85203643 4.07835574 21.85247154 5.66292127 21.86328125 8.49609375 C21.86908203 9.95015625 21.86908203 9.95015625 21.875 11.43359375 C21.86339844 12.44421875 21.85179688 13.45484375 21.83984375 14.49609375 C21.85144531 15.50671875 21.86304687 16.51734375 21.875 17.55859375 C21.87113281 18.52796875 21.86726563 19.49734375 21.86328125 20.49609375 C21.85820557 21.82640625 21.85820557 21.82640625 21.85302734 23.18359375 C21.46484375 25.49609375 21.46484375 25.49609375 20.29345703 27.27929688 C16.25830388 29.96437075 10.64331262 29.00654843 5.96484375 28.99609375 C4.81113281 29.02445313 3.65742187 29.0528125 2.46875 29.08203125 C1.36402344 29.08460938 0.25929688 29.0871875 -0.87890625 29.08984375 C-1.89146484 29.09693359 -2.90402344 29.10402344 -3.94726562 29.11132812 C-6.53515625 28.49609375 -6.53515625 28.49609375 -8.36157227 26.24047852 C-10.13877883 22.08454363 -10.01004248 18.3961502 -9.97265625 13.93359375 C-9.99263672 13.08345703 -10.01261719 12.23332031 -10.03320312 11.35742188 C-10.03255859 10.53564453 -10.03191406 9.71386719 -10.03125 8.8671875 C-10.03310303 8.1239624 -10.03495605 7.3807373 -10.03686523 6.61499023 C-8.76153009 1.22879379 -5.07396896 -0.0097389 0 0 Z " fill="#0E1721" transform="translate(55.53515625,136.50390625)"/>
<path d="M0 0 C1.10601562 -0.01611328 2.21203125 -0.03222656 3.3515625 -0.04882812 C4.41117188 -0.04947266 5.47078125 -0.05011719 6.5625 -0.05078125 C7.53316406 -0.05376221 8.50382812 -0.05674316 9.50390625 -0.05981445 C12 0.3125 12 0.3125 13.81494141 1.50683594 C15.41851474 3.95018748 15.38790089 5.65453755 15.3984375 8.56640625 C15.40423828 10.09491211 15.40423828 10.09491211 15.41015625 11.65429688 C15.39855469 12.71712891 15.38695313 13.77996094 15.375 14.875 C15.38660156 15.94169922 15.39820312 17.00839844 15.41015625 18.10742188 C15.40628906 19.12513672 15.40242188 20.14285156 15.3984375 21.19140625 C15.39505371 22.1254126 15.39166992 23.05941895 15.38818359 24.02172852 C15.26008301 24.77768311 15.13198242 25.5336377 15 26.3125 C11.58702352 28.58781766 10.31869095 28.56924679 6.30859375 28.578125 C4.64473633 28.58199219 4.64473633 28.58199219 2.94726562 28.5859375 C1.78904297 28.57820313 0.63082031 28.57046875 -0.5625 28.5625 C-1.72458984 28.57023437 -2.88667969 28.57796875 -4.08398438 28.5859375 C-5.19193359 28.58335937 -6.29988281 28.58078125 -7.44140625 28.578125 C-8.45920166 28.57586914 -9.47699707 28.57361328 -10.52563477 28.57128906 C-13 28.3125 -13 28.3125 -15 26.3125 C-15.45594946 22.33094664 -15.32403413 18.31714871 -15.3125 14.3125 C-15.32861328 13.19359375 -15.34472656 12.0746875 -15.36132812 10.921875 C-15.36197266 9.85453125 -15.36261719 8.7871875 -15.36328125 7.6875 C-15.36626221 6.70523438 -15.36924316 5.72296875 -15.37231445 4.7109375 C-15.24945068 3.91945312 -15.12658691 3.12796875 -15 2.3125 C-10.32754625 -0.80246916 -5.49414246 -0.01600857 0 0 Z " fill="#0E1721" transform="translate(100,136.6875)"/>
<path d="M0 0 C3.45333925 1.83458648 5.43612355 4.51601465 6.77490234 8.18774414 C7.47443292 10.65534964 8.09635249 13.12925503 8.6875 15.625 C9.00557617 16.90020508 9.00557617 16.90020508 9.33007812 18.20117188 C9.8980776 20.48571235 10.45011412 22.77355058 11 25.0625 C11.3318839 26.39619486 11.66476041 27.72964468 12 29.0625 C12.18175781 28.24265625 12.36351562 27.4228125 12.55078125 26.578125 C12.92783203 24.96164063 12.92783203 24.96164063 13.3125 23.3125 C13.55613281 22.24515625 13.79976562 21.1778125 14.05078125 20.078125 C14.9854176 17.10882761 15.8760533 15.31517074 18 13.0625 C20.4375 12.5625 20.4375 12.5625 23 13.0625 C23.598125 13.701875 24.19625 14.34125 24.8125 15 C28.01683572 18.02123082 30.66713802 17.77364253 35 18.0625 C35.38218767 19.71864657 35.71395102 21.38707024 36 23.0625 C34.43966377 24.62283623 32.91052864 24.26957559 30.75 24.3125 C29.98171875 24.33828125 29.2134375 24.3640625 28.421875 24.390625 C25.40007934 23.98122043 23.50618949 22.75106739 21 21.0625 C20.82984375 21.88234375 20.6596875 22.7021875 20.484375 23.546875 C20.24203125 24.62453125 19.9996875 25.7021875 19.75 26.8125 C19.51796875 27.87984375 19.2859375 28.9471875 19.046875 30.046875 C17.8942999 33.36697939 16.74795549 34.90600922 14 37.0625 C11.4375 37.0625 11.4375 37.0625 9 36.0625 C6.35498743 33.12498408 5.3458019 30.44570758 4.39453125 26.640625 C4.13349609 25.61582031 3.87246094 24.59101562 3.60351562 23.53515625 C3.21196289 21.93994141 3.21196289 21.93994141 2.8125 20.3125 C2.53986328 19.23355469 2.26722656 18.15460937 1.98632812 17.04296875 C1.3158998 14.38477924 0.65413348 11.72473756 0 9.0625 C-0.38091797 10.79886719 -0.38091797 10.79886719 -0.76953125 12.5703125 C-1.11677954 14.1094671 -1.46445867 15.64852453 -1.8125 17.1875 C-1.97814453 17.94804688 -2.14378906 18.70859375 -2.31445312 19.4921875 C-3.56164545 24.95159541 -4.93174864 29.99424864 -9 34.0625 C-11.875 34.25 -11.875 34.25 -15 33.0625 C-16.34530874 30.87094866 -17.24616737 28.6978212 -18.140625 26.2890625 C-18.99573248 23.832852 -18.99573248 23.832852 -21 21.0625 C-21.4125 21.5575 -21.825 22.0525 -22.25 22.5625 C-24 24.0625 -24 24.0625 -28 24.0625 C-28 22.0825 -28 20.1025 -28 18.0625 C-27.34 18.0625 -26.68 18.0625 -26 18.0625 C-25.690625 17.423125 -25.38125 16.78375 -25.0625 16.125 C-24 14.0625 -24 14.0625 -23 13.0625 C-19.75 12.75 -19.75 12.75 -16 14.0625 C-13.80583914 17.88458665 -12.36820977 21.88220932 -11 26.0625 C-10.86948242 25.41700195 -10.73896484 24.77150391 -10.60449219 24.10644531 C-10.00192034 21.17167768 -9.37624542 18.24230313 -8.75 15.3125 C-8.54503906 14.29671875 -8.34007813 13.2809375 -8.12890625 12.234375 C-7.91621094 11.2546875 -7.70351562 10.275 -7.484375 9.265625 C-7.29584961 8.36489258 -7.10732422 7.46416016 -6.91308594 6.53613281 C-5.67977927 3.19499294 -3.81138923 0.11910591 0 0 Z " fill="#0E1821" transform="translate(73,43.9375)"/>
<path d="M0 0 C5.50499905 0.6507886 9.94196132 4.56703832 14.46777344 7.57128906 C15.53382813 8.25320312 16.59988281 8.93511719 17.69824219 9.63769531 C18.71015625 10.3015625 19.72207031 10.96542969 20.76464844 11.64941406 C21.69116211 12.25688477 22.61767578 12.86435547 23.57226562 13.49023438 C25.86754857 15.44911263 26.40060686 16.37245316 26.71777344 19.32128906 C21.88034174 23.46032298 16.53441948 26.75755571 11.15527344 30.13378906 C10.20974609 30.74416016 9.26421875 31.35453125 8.29003906 31.98339844 C6.92202148 32.84094727 6.92202148 32.84094727 5.52636719 33.71582031 C4.69935303 34.24022705 3.87233887 34.76463379 3.02026367 35.30493164 C0.71777344 36.32128906 0.71777344 36.32128906 -1.52026367 36.10913086 C-3.28222656 35.32128906 -3.28222656 35.32128906 -4.28222656 33.32128906 C-4.49363971 28.89547038 -4.46802364 24.46594661 -4.4675293 20.03564453 C-4.46971804 17.82988256 -4.48788516 15.62461891 -4.50683594 13.41894531 C-4.50976949 12.02181161 -4.51175454 10.62467553 -4.51269531 9.22753906 C-4.5168042 7.95201172 -4.52091309 6.67648438 -4.52514648 5.36230469 C-4.23443622 1.72302127 -3.71465178 0.52294413 0 0 Z " fill="#0E1821" transform="translate(123.2822265625,45.6787109375)"/>
<path d="M0 0 C5.94 0 11.88 0 18 0 C18 4.95 18 9.9 18 15 C12.06 15 6.12 15 0 15 C0 10.05 0 5.1 0 0 Z " fill="#1C2632" transform="translate(129,144)"/>
<path d="M0 0 C5.94 0 11.88 0 18 0 C18 4.95 18 9.9 18 15 C12.06 15 6.12 15 0 15 C0 10.05 0 5.1 0 0 Z " fill="#1C2532" transform="translate(91,144)"/>
<path d="M0 0 C5.94 0 11.88 0 18 0 C18 4.95 18 9.9 18 15 C12.06 15 6.12 15 0 15 C0 10.05 0 5.1 0 0 Z " fill="#1C2632" transform="translate(129,110)"/>
<path d="M0 0 C5.94 0 11.88 0 18 0 C18 4.95 18 9.9 18 15 C12.06 15 6.12 15 0 15 C0 10.05 0 5.1 0 0 Z " fill="#1C2632" transform="translate(91,110)"/>
<path d="M0 0 C5.94 0 11.88 0 18 0 C18 4.95 18 9.9 18 15 C12.06 15 6.12 15 0 15 C0 10.05 0 5.1 0 0 Z " fill="#1C2632" transform="translate(53,110)"/>
<path d="M0 0 C5.61 0 11.22 0 17 0 C17 4.95 17 9.9 17 15 C11.39 15 5.78 15 0 15 C0 10.05 0 5.1 0 0 Z " fill="#1C2632" transform="translate(53,144)"/>
<path d="M0 0 C10.17857143 4.82142857 10.17857143 4.82142857 14 9 C12.04532248 10.33898399 10.0866421 11.67129047 8.125 13 C7.03445312 13.7425 5.94390625 14.485 4.8203125 15.25 C2 17 2 17 0 17 C0 11.39 0 5.78 0 0 Z " fill="#1C2632" transform="translate(126,55)"/>
</svg>
